# xmcd CD database file
#
# Track frame offsets:
#	150
#	24558
#	41783
#	62439
#	98049
#	332550
#
# Disc length: 4440 seconds
#
# Revision: 0
# Processed by: cddbd v1.5PL3 Copyright (c) Steve Scherf et al.
# Submitted via: CDex 1.40Release
#
DISCID=46115606
DTITLE=YKZ - 御用牙 牙のテーマ
DYEAR=2003
DGENRE=不明
TTITLE0=御用牙〜牙のテーマ [FEATURING NIPPS and DEV LARGE]
TTITLE1=DAY AFTER DAY
TTITLE2=御用牙〜牙のテーマ [FEATURING NIPPS and DEV LARGE](SHADOW COMMITTEE MIX)
TTITLE3=御用牙〜牙のテーマ [INST. DEV LARGE MIX FEATURING JUN FUKAMACHI]
TTITLE4=data1
TTITLE5=data2
EXTD=YEAR: 2003
EXTT0=
EXTT1=
EXTT2=
EXTT3=
EXTT4=
EXTT5=
PLAYORDER=
